<?xml version="1.0" standalone="no"?><!DOCTYPE svg PUBLIC "-//W3C//DTD SVG 1.1//EN" "http://www.w3.org/Graphics/SVG/1.1/DTD/svg11.dtd"><svg class="icon" width="200px" height="200.00px" viewBox="0 0 1024 1024" version="1.1" xmlns="http://www.w3.org/2000/svg"><path fill="#333333" d="M841.350737 771.772632H201.997474V191.865263a7.437474 7.437474 0 0 0-7.383579-7.383579h-52.062316a7.437474 7.437474 0 0 0-7.437474 7.437474v639.353263c0 4.096 3.341474 7.437474 7.437474 7.437474h698.799158a7.437474 7.437474 0 0 0 7.437474-7.437474v-52.062316a7.437474 7.437474 0 0 0-7.437474-7.437473z"  /><path fill="#333333" d="M566.541474 581.039158l-45.702737-45.217684-75.991579-75.183158-118.676211 119.053473v67.907369h383.622737V437.894737l-143.25221 143.198316zM268.934737 712.326737a7.437474 7.437474 0 0 1-7.437474-7.437474v-148.911158c0-1.940211 0.754526-3.772632 2.15579-5.173894L439.242105 374.568421a7.437474 7.437474 0 0 1 10.509474 0l116.574316 115.280842 195.422316-195.422316a7.491368 7.491368 0 0 1 12.719157 5.281685v405.180631a7.437474 7.437474 0 0 1-7.437473 7.437474H268.934737z"  /></svg>