<?xml version="1.0" standalone="no"?><!DOCTYPE svg PUBLIC "-//W3C//DTD SVG 1.1//EN" "http://www.w3.org/Graphics/SVG/1.1/DTD/svg11.dtd"><svg class="icon" width="200px" height="199.61px" viewBox="0 0 1026 1024" version="1.1" xmlns="http://www.w3.org/2000/svg"><path fill="#333333" d="M602.05 1024c-36.02 0-66.894-15.437-92.623-36.02L36.02 514.573C10.291 488.844 0 452.824 0 411.658l20.583-272.723c5.146-61.75 56.603-113.206 118.352-118.352L411.658 0c41.166 0 77.186 10.291 102.915 36.02L987.98 509.427c51.457 51.457 51.457 133.79 0 185.246L694.673 987.98c-25.728 20.583-56.603 36.02-92.623 36.02zM421.95 51.457h-5.146L144.08 72.04c-36.02 5.146-66.894 36.02-72.04 72.04L51.457 416.804c0 20.583 5.146 46.312 25.729 61.749L550.593 951.96c30.874 30.874 82.332 30.874 113.206 0l293.307-293.307c30.874-30.874 30.874-82.331 0-113.206L478.553 72.04c-15.437-10.291-36.02-20.583-56.603-20.583zM283.015 391.075c-30.874 0-56.603-10.291-77.186-30.874-41.166-41.166-41.166-113.206 0-154.372 20.583-20.583 46.312-30.874 77.186-30.874s56.603 10.291 77.186 30.874c41.166 41.166 41.166 113.206 0 154.372-20.583 20.583-46.312 30.874-77.186 30.874z m0-164.663c-15.437 0-30.874 5.146-41.166 15.437-20.583 20.583-20.583 56.603 0 82.332 20.583 20.583 61.749 20.583 82.332 0 20.583-20.583 20.583-56.603 0-82.332-10.292-10.291-25.729-15.437-41.166-15.437z" /></svg>